HIERARCHY
ROOT Hips
{
	OFFSET -3.958830 18.904000 13.208200
	CHANNELS 6 Xposition Yposition Zposition Zrotation Yrotation Xrotation 
	JOINT LHipJoint
	{
		OFFSET 0.000000 0.000000 0.000000
		CHANNELS 3 Zrotation Yrotation Xrotation
		JOINT LeftUpLeg
		{
			OFFSET 1.800000 -1.400000 0.085000
			CHANNELS 3 Zrotation Yrotation Xrotation
			JOINT LeftLeg
			{
				OFFSET 2.215000 -6.000000 0.000000
				CHANNELS 3 Zrotation Yrotation Xrotation
				JOINT LeftFoot
				{
					OFFSET 2.500000 -6.900000 0.000000
					CHANNELS 3 Zrotation Yrotation Xrotation
					JOINT LeftToeBase
					{
						OFFSET 0.200000 -0.500000 1.950000
						CHANNELS 3 Zrotation Yrotation Xrotation
						End Site
						{
							OFFSET 0.000000 0.000000 0.000000
						}
					}
				}
			}
		}
	}
	JOINT RHipJoint
	{
		OFFSET 0.000000 0.000000 0.000000
		CHANNELS 3 Zrotation Yrotation Xrotation
		JOINT RightUpLeg
		{
			OFFSET -1.800000 -1.400000 0.085000
			CHANNELS 3 Zrotation Yrotation Xrotation
			JOINT RightLeg
			{
				OFFSET -2.215000 -6.000000 0.000000
				CHANNELS 3 Zrotation Yrotation Xrotation
				JOINT RightFoot
				{
					OFFSET -2.500000 -6.900000 0.000000
					CHANNELS 3 Zrotation Yrotation Xrotation
					JOINT RightToeBase
					{
						OFFSET -0.200000 -0.500000 1.950000
						CHANNELS 3 Zrotation Yrotation Xrotation
						End Site
						{
							OFFSET 0.000000 0.000000 0.000000
						}
					}
				}
			}
		}
	}
	JOINT LowerBack
	{
		OFFSET 0.000000 0.000000 0.000000
		CHANNELS 3 Zrotation Yrotation Xrotation
		JOINT Spine
		{
			OFFSET -0.087000 1.940000 -0.288900
			CHANNELS 3 Zrotation Yrotation Xrotation
			JOINT Spine1
			{
				OFFSET 0.000000 1.950000 0.060000
				CHANNELS 3 Zrotation Yrotation Xrotation
				JOINT Neck
				{
					OFFSET 0.000000 0.000000 0.000000
					CHANNELS 3 Zrotation Yrotation Xrotation
					JOINT Neck1
					{
						OFFSET 0.000000 1.600000 0.340000
						CHANNELS 3 Zrotation Yrotation Xrotation
						JOINT Head
						{
							OFFSET 0.000000 1.667000 -0.240000
							CHANNELS 3 Zrotation Yrotation Xrotation
							End Site
							{
								OFFSET 0.000000 0.000000 0.000000
							}
						}
					}
				}
				JOINT LeftShoulder
				{
					OFFSET 0.000000 0.000000 0.000000
					CHANNELS 3 Zrotation Yrotation Xrotation
					JOINT LeftArm
					{
						OFFSET 2.700000 1.550000 -0.730000
						CHANNELS 3 Zrotation Yrotation Xrotation
						JOINT LeftForeArm
						{
							OFFSET 5.450000 0.000000 0.000000
							CHANNELS 3 Zrotation Yrotation Xrotation
							JOINT LeftHand
							{
								OFFSET 3.450000 0.000000 0.000000
								CHANNELS 3 Zrotation Yrotation Xrotation
								JOINT LeftHandIndex1
								{
									OFFSET 0.750000 0.000000 0.000000
									CHANNELS 3 Zrotation Yrotation Xrotation
									End Site
									{
										OFFSET 0.000000 0.000000 0.000000
									}
								}
							}
						}
					}
				}
				JOINT RightShoulder
				{
					OFFSET 0.000000 0.000000 0.000000
					CHANNELS 3 Zrotation Yrotation Xrotation
					JOINT RightArm
					{
						OFFSET -2.700000 1.550000 -0.730000
						CHANNELS 3 Zrotation Yrotation Xrotation
						JOINT RightForeArm
						{
							OFFSET -5.450000 0.000000 0.000000
							CHANNELS 3 Zrotation Yrotation Xrotation
							JOINT RightHand
							{
								OFFSET -3.450000 0.000000 0.000000
								CHANNELS 3 Zrotation Yrotation Xrotation
								JOINT RightHandIndex1
								{
									OFFSET -0.750000 0.000000 0.000000
									CHANNELS 3 Zrotation Yrotation Xrotation
									End Site
									{
										OFFSET 0.000000 0.000000 0.000000
									}
								}
							}
						}
					}
				}
			}
		}
	}
}
MOTION
Frames: 7
Frame Time: 0.016667
1.857110 17.435070 -9.408230 -3.131799 27.635553 -4.829937 -15.442400 13.889773 3.406372 -0.520749 0.080482 -3.096373 -5.769613 5.057926 9.345168 -0.361672 4.135692 3.193044 0.619410 0.194120 0.543170 17.752069 -10.377697 3.696144 -3.679833 4.379751 -19.772022 21.675458 -9.327372 19.703703 -0.819311 -4.368182 2.644406 0.000220 -0.004480 0.526990 -3.266849 -2.889080 -9.052444 11.412132 -2.399952 19.745993 -3.189503 0.082780 7.902161 4.147724 4.246312 -22.823987 3.922814 -7.046390 52.365648 2.836470 -6.530960 -18.207980 -21.046809 -40.493771 11.265913 -21.927285 -23.133169 -0.129215 -38.362211 -44.906538 14.171468 -3.102340 3.376906 0.894860 -0.175550 0.423190 0.206590 11.741975 40.943809 11.347080 21.854247 24.010695 -4.943691 35.752092 49.464595 13.755629 1.809656 -1.524984 0.010910 0.096800 -0.071190 -0.171670 
1.846980 17.453000 -9.427770 -3.850103 27.262338 -5.068270 -15.422500 13.817366 3.354774 0.000383 0.101536 -2.937887 -5.787428 4.965942 8.484187 -0.366808 4.126935 3.204750 0.617590 0.195100 0.545900 17.791882 -10.280850 3.775000 -4.344346 4.718920 -20.493884 23.896268 -10.183779 20.564619 -0.891537 -4.729160 2.514517 0.007080 0.004620 0.526530 -3.326580 -2.873397 -9.066753 12.143849 -2.722594 19.820670 -3.389545 -0.170503 7.991298 4.180059 4.346690 -22.422550 4.236912 -6.971380 51.584180 2.446410 -6.159320 -18.088370 -20.930275 -40.509906 11.138111 -21.043685 -23.140201 -0.258970 -38.963951 -45.448913 14.708924 -3.116080 3.389213 0.883070 -0.162380 0.414440 0.205490 11.470744 40.743236 11.054538 21.621595 24.349384 -5.040023 35.900341 50.276836 14.092796 1.802474 -1.543013 0.005840 0.101170 -0.070360 -0.173160 
1.831610 17.484030 -9.467970 -5.542341 26.058902 -5.651259 -15.366158 13.669561 3.248018 1.264694 0.124928 -2.535993 -5.696827 4.762735 6.708900 -0.381957 4.130025 3.221110 0.614550 0.191870 0.555240 17.892688 -10.074922 3.952437 -5.144212 5.526276 -21.879662 28.062583 -11.890361 22.244977 -1.055013 -5.422157 2.270377 0.016630 0.018200 0.526020 -3.487682 -2.850193 -9.102427 14.354070 -3.436016 20.092568 -4.211918 -0.455074 8.014961 4.332381 4.343836 -21.784386 4.343317 -6.602953 50.591566 1.866510 -5.451230 -18.366460 -20.578390 -40.499971 10.864044 -19.421415 -23.074399 -0.524736 -40.032619 -46.489851 15.697549 -3.134637 3.398787 0.881130 -0.147400 0.407740 0.202380 10.645409 40.489314 10.592112 21.447767 25.030514 -5.301189 36.064783 51.922142 14.705247 1.780691 -1.563034 -0.009620 0.117940 -0.065260 -0.181040 
1.808020 17.512850 -9.514780 -7.331442 24.651790 -6.093625 -15.311505 13.435440 3.132562 2.833974 0.089817 -2.035093 -5.858553 4.548857 4.426550 -0.405659 4.184643 3.217669 0.630370 0.200290 0.580460 18.013237 -9.789666 4.180887 -6.489655 6.379783 -23.830068 33.645755 -14.335090 24.139267 -1.297086 -6.356584 1.948462 0.039350 0.026320 0.527170 -3.643763 -2.808896 -9.152903 16.475036 -4.242778 20.277879 -4.805851 -0.939720 8.066741 4.428790 4.193573 -20.812752 4.242228 -5.926683 49.247980 1.344850 -4.466170 -19.090210 -19.867193 -40.335318 10.426277 -17.721869 -23.055646 -0.867679 -41.161564 -47.824158 16.820999 -3.152370 3.417772 0.892570 -0.136250 0.401330 0.200380 9.663328 40.015860 9.910650 21.471206 26.010075 -5.419778 36.509482 53.539915 15.397513 1.761375 -1.584285 -0.030910 0.134510 -0.064080 -0.199450 
1.771350 17.534810 -9.564600 -8.437202 23.267057 -6.194399 -15.298591 13.205827 3.054499 3.872444 0.032974 -1.516391 -5.869752 4.322315 2.323892 -0.426792 4.266571 3.209755 0.637130 0.187960 0.606480 18.090390 -9.473024 4.432158 -8.596901 6.831258 -26.006170 39.969600 -17.277239 25.744143 -1.570488 -7.370209 1.617694 0.053500 0.044880 0.529020 -3.668683 -2.851607 -9.247236 17.063965 -4.721136 20.605568 -4.591655 -1.441681 8.136423 4.356684 4.064092 -20.090251 4.218515 -5.224711 48.125544 0.841230 -3.508010 -19.404310 -19.028218 -40.304487 10.024662 -15.859951 -22.894936 -1.399925 -41.815989 -49.551795 17.926232 -3.164924 3.439119 0.907940 -0.119870 0.388310 0.197500 9.018034 39.717364 9.361550 21.139338 26.774842 -5.718884 37.103025 55.450638 16.288926 1.732920 -1.612106 -0.061460 0.156310 -0.056830 -0.221890 
1.727430 17.548790 -9.611280 -9.462461 21.923505 -6.226198 -15.293679 12.984155 3.002438 5.139496 -0.081854 -1.051191 -6.136137 4.150492 0.384533 -0.423711 4.382627 3.182595 0.640730 0.187870 0.618140 18.154338 -9.168229 4.670642 -10.671337 6.908847 -28.154612 46.395257 -20.673473 27.271748 -1.860011 -8.368354 1.307560 0.067810 0.058040 0.533820 -3.667921 -2.917831 -9.354732 17.307881 -5.181420 20.910153 -4.262113 -1.978032 8.098097 4.240598 4.004838 -19.555880 4.335159 -4.571050 47.339926 0.286610 -2.554430 -19.539450 -18.224879 -40.278098 9.711509 -13.884255 -22.347545 -1.989225 -42.716051 -51.111088 19.110277 -3.166782 3.476059 0.915170 -0.105280 0.383950 0.197950 8.491204 39.431793 8.882197 21.086036 27.515448 -5.851159 37.993497 56.930976 17.136878 1.720975 -1.635917 -0.080370 0.168750 -0.052540 -0.233100 
1.682190 17.560030 -9.651160 -10.291104 20.647731 -6.221922 -15.303304 12.800940 2.985419 6.347237 -0.231879 -0.666555 -6.523025 4.028607 -1.172896 -0.420775 4.510909 3.140178 0.652420 0.201280 0.643020 18.190105 -8.932944 4.838119 -12.284553 6.591834 -29.749858 52.006896 -23.858698 28.237521 -2.098927 -9.142441 1.084676 0.088210 0.055980 0.535270 -3.621419 -2.976236 -9.440813 17.058805 -5.371546 21.140502 -3.657698 -2.414046 8.183681 4.150834 4.205690 -19.063007 4.980692 -4.157505 46.491289 -0.635030 -1.452760 -19.924380 -17.352406 -40.280409 9.303262 -11.935077 -21.991836 -2.487511 -43.149168 -52.256872 19.964049 -3.175851 3.501654 0.919170 -0.090470 0.383340 0.190420 7.865250 39.037968 8.545818 21.238355 27.974714 -6.104911 38.946168 58.520920 17.959776 1.702119 -1.661543 -0.093410 0.177120 -0.052500 -0.252180 
